<?xml version="1.0" encoding="UTF-8"?>
<svg xmlns="http://www.w3.org/2000/svg" xmlns:xlink="http://www.w3.org/1999/xlink" width="100pt" height="100pt" viewBox="0 0 100 100" version="1.1">
<g id="surface1">
<path style=" stroke:none;fill-rule:nonzero;fill:rgb(89.411765%,8.235294%,7.45098%);fill-opacity:1;" d="M 94.886719 48.460938 C 94.886719 48.996094 94.886719 49.53125 94.746094 49.941406 C 94.335938 49.804688 93.9375 49.804688 93.402344 49.804688 C 92.988281 49.804688 92.589844 49.941406 92.179688 49.941406 C 92.179688 56.691406 92.179688 56.691406 92.179688 56.691406 C 90.417969 56.691406 90.417969 56.691406 90.417969 56.691406 C 90.417969 48.871094 90.417969 48.871094 90.417969 48.871094 C 91.089844 48.597656 92.453125 48.335938 93.386719 48.335938 C 93.9375 48.320312 94.472656 48.320312 94.886719 48.460938 Z M 83.136719 51.824219 C 87.191406 51.824219 87.191406 51.824219 87.191406 51.824219 C 87.191406 50.617188 86.378906 49.804688 85.171875 49.804688 C 83.949219 49.804688 83.273438 50.480469 83.136719 51.824219 Z M 88.8125 53.308594 C 83.273438 53.308594 83.273438 53.308594 83.273438 53.308594 C 83.414062 54.792969 84.222656 55.464844 85.84375 55.464844 C 86.792969 55.464844 87.742188 55.191406 88.675781 54.792969 C 88.539062 55.328125 88.398438 55.863281 88.398438 56.414062 C 87.589844 56.8125 86.640625 56.949219 85.828125 56.949219 C 82.863281 56.949219 81.378906 55.328125 81.378906 52.636719 C 81.378906 50.203125 82.601562 48.320312 85.292969 48.320312 C 87.863281 48.320312 88.933594 49.941406 88.933594 51.964844 C 88.949219 52.496094 88.8125 52.894531 88.8125 53.308594 Z M 78.273438 54.929688 C 78.273438 49.941406 78.273438 49.941406 78.273438 49.941406 C 77.875 49.941406 77.324219 49.804688 76.925781 49.804688 C 75.167969 49.804688 74.355469 50.878906 74.355469 52.773438 C 74.355469 54.394531 75.027344 55.464844 76.515625 55.464844 C 77.203125 55.464844 77.738281 55.191406 78.273438 54.929688 Z M 80.03125 45.632812 C 80.03125 56.675781 80.03125 56.675781 80.03125 56.675781 C 78.410156 56.675781 78.410156 56.675781 78.410156 56.675781 C 78.273438 55.726562 78.273438 55.726562 78.273438 55.726562 C 77.875 56.398438 77.1875 56.933594 75.976562 56.933594 C 73.945312 56.933594 72.597656 55.3125 72.597656 52.757812 C 72.597656 49.929688 74.082031 48.304688 76.910156 48.304688 C 77.445312 48.304688 77.859375 48.445312 78.257812 48.445312 C 78.257812 45.890625 78.257812 45.890625 78.257812 45.890625 C 78.824219 45.632812 79.496094 45.632812 80.03125 45.632812 Z M 71.128906 51.414062 C 71.128906 56.675781 71.128906 56.675781 71.128906 56.675781 C 69.371094 56.675781 69.371094 56.675781 69.371094 56.675781 C 69.371094 51.6875 69.371094 51.6875 69.371094 51.6875 C 69.371094 50.480469 68.957031 49.804688 67.214844 49.804688 C 66.800781 49.804688 66.402344 49.941406 65.867188 49.941406 C 65.867188 56.691406 65.867188 56.691406 65.867188 56.691406 C 64.109375 56.691406 64.109375 56.691406 64.109375 56.691406 C 64.109375 48.871094 64.109375 48.871094 64.109375 48.871094 C 65.191406 48.597656 66.402344 48.335938 67.351562 48.335938 C 70.179688 48.320312 71.128906 49.53125 71.128906 51.414062 Z M 60.464844 54.929688 C 60.464844 49.941406 60.464844 49.941406 60.464844 49.941406 C 60.054688 49.941406 59.65625 49.804688 59.257812 49.804688 C 57.363281 49.804688 56.550781 51.015625 56.550781 52.773438 C 56.550781 54.394531 57.226562 55.464844 58.707031 55.464844 C 59.378906 55.464844 60.054688 55.328125 60.464844 54.929688 Z M 62.226562 48.855469 C 62.226562 56.675781 62.226562 56.675781 62.226562 56.675781 C 60.605469 56.675781 60.605469 56.675781 60.605469 56.675781 C 60.464844 55.726562 60.464844 55.726562 60.464844 55.726562 C 60.054688 56.398438 59.378906 56.933594 58.3125 56.933594 C 56.15625 56.933594 54.808594 55.3125 54.808594 52.757812 C 54.808594 49.929688 56.292969 48.304688 59.257812 48.304688 C 60.328125 48.320312 61.277344 48.460938 62.226562 48.855469 Z M 52.773438 55.464844 C 53.308594 55.464844 53.859375 55.328125 54.257812 55.191406 C 54.117188 55.589844 54.117188 56.140625 53.980469 56.675781 C 53.566406 56.8125 53.03125 56.949219 52.496094 56.949219 C 50.878906 56.949219 49.804688 56.140625 49.804688 54.257812 C 49.804688 45.90625 49.804688 45.90625 49.804688 45.90625 C 50.34375 45.769531 50.894531 45.632812 51.429688 45.632812 C 51.429688 48.597656 51.429688 48.597656 51.429688 48.597656 C 54.257812 48.597656 54.257812 48.597656 54.257812 48.597656 C 54.257812 49.132812 54.117188 49.683594 54.117188 50.078125 C 51.414062 50.078125 51.414062 50.078125 51.414062 50.078125 C 51.414062 53.980469 51.414062 53.980469 51.414062 53.980469 C 51.429688 55.054688 51.964844 55.464844 52.773438 55.464844 Z M 48.046875 51.414062 C 48.046875 56.675781 48.046875 56.675781 48.046875 56.675781 C 46.289062 56.675781 46.289062 56.675781 46.289062 56.675781 C 46.289062 51.6875 46.289062 51.6875 46.289062 51.6875 C 46.289062 50.480469 45.890625 49.804688 44.128906 49.804688 C 43.730469 49.804688 43.183594 49.941406 42.648438 49.941406 C 42.648438 56.691406 42.648438 56.691406 42.648438 56.691406 C 40.886719 56.691406 40.886719 56.691406 40.886719 56.691406 C 40.886719 48.871094 40.886719 48.871094 40.886719 48.871094 C 42.097656 48.597656 43.320312 48.335938 44.128906 48.335938 C 47.097656 48.320312 48.046875 49.53125 48.046875 51.414062 Z M 37.246094 54.929688 C 37.246094 49.941406 37.246094 49.941406 37.246094 49.941406 C 36.972656 49.941406 36.574219 49.804688 36.039062 49.804688 C 34.28125 49.804688 33.347656 51.015625 33.347656 52.773438 C 33.347656 54.394531 34.019531 55.464844 35.640625 55.464844 C 36.300781 55.464844 36.851562 55.328125 37.246094 54.929688 Z M 39.003906 48.855469 C 39.003906 56.675781 39.003906 56.675781 39.003906 56.675781 C 37.382812 56.675781 37.382812 56.675781 37.382812 56.675781 C 37.382812 55.726562 37.382812 55.726562 37.382812 55.726562 C 36.851562 56.398438 36.175781 56.933594 35.089844 56.933594 C 33.070312 56.933594 31.585938 55.3125 31.585938 52.757812 C 31.585938 49.929688 33.070312 48.304688 36.039062 48.304688 C 37.246094 48.320312 38.195312 48.460938 39.003906 48.855469 Z M 23.21875 56.398438 C 23.21875 55.726562 23.355469 55.328125 23.496094 54.777344 C 24.445312 55.175781 25.515625 55.3125 26.464844 55.3125 C 27.945312 55.3125 28.757812 54.917969 28.757812 53.964844 C 28.757812 53.015625 28.082031 52.621094 26.601562 51.949219 C 25.789062 51.671875 25.789062 51.671875 25.789062 51.671875 C 24.308594 51 23.355469 50.1875 23.355469 48.445312 C 23.355469 46.683594 24.566406 45.476562 27.136719 45.476562 C 28.222656 45.476562 29.15625 45.617188 29.96875 45.875 C 29.96875 46.546875 29.828125 47.082031 29.691406 47.496094 C 28.882812 47.21875 27.792969 47.097656 27.121094 47.097656 C 25.773438 47.097656 25.101562 47.632812 25.101562 48.445312 C 25.101562 49.253906 25.636719 49.792969 26.859375 50.203125 C 27.671875 50.601562 27.671875 50.601562 27.671875 50.601562 C 29.691406 51.414062 30.503906 52.359375 30.503906 53.828125 C 30.503906 55.710938 29.15625 56.933594 26.449219 56.933594 C 25.101562 56.949219 24.03125 56.8125 23.21875 56.398438 Z M 15.25 48.582031 C 15.113281 47.910156 14.976562 47.375 14.714844 46.824219 C 12.023438 42.234375 12.023438 42.234375 12.023438 42.234375 C 11.886719 41.957031 11.746094 41.5625 11.625 41.164062 C 11.625 41.4375 11.625 41.4375 11.625 41.4375 C 10.953125 42.507812 10.953125 43.871094 11.625 45.082031 C 13.644531 48.71875 13.644531 48.71875 13.644531 48.71875 C 14.320312 49.792969 14.320312 51.273438 13.644531 52.359375 C 13.503906 52.636719 13.503906 52.636719 13.503906 52.636719 C 13.503906 52.238281 13.367188 51.824219 13.109375 51.429688 C 11.210938 48.0625 11.210938 48.0625 11.210938 48.0625 C 10.003906 46.042969 10.003906 46.042969 10.003906 46.042969 C 9.730469 45.644531 9.605469 45.230469 9.605469 44.832031 C 9.46875 45.109375 9.46875 45.109375 9.46875 45.109375 C 8.796875 46.179688 8.796875 47.542969 9.46875 48.75 C 11.625 52.390625 11.625 52.390625 11.625 52.390625 C 12.160156 53.597656 12.160156 54.945312 11.625 56.03125 C 11.488281 56.308594 11.488281 56.308594 11.488281 56.308594 C 11.351562 55.910156 11.210938 55.496094 11.089844 55.234375 C 8.398438 50.644531 8.398438 50.644531 8.398438 50.644531 C 8 49.972656 7.863281 49.300781 7.863281 48.628906 C 5.035156 49.300781 3.136719 50.921875 3.136719 52.667969 C 3.136719 55.21875 6.914062 57.257812 11.640625 57.257812 C 16.230469 57.257812 20.007812 55.234375 20.007812 52.667969 C 19.976562 50.878906 18.078125 49.269531 15.25 48.582031 Z M 15.25 48.582031 "/>
</g>
</svg>
